<svg width="50" height="50" viewBox="0 0 50 50" fill="none" xmlns="http://www.w3.org/2000/svg">
<path fill-rule="evenodd" clip-rule="evenodd" d="M14.5187 5.14374C14.6639 4.99823 14.8363 4.88278 15.0261 4.80401C15.216 4.72524 15.4195 4.68469 15.625 4.68469C15.8305 4.68469 16.034 4.72524 16.2238 4.80401C16.4137 4.88278 16.5861 4.99823 16.7312 5.14374L35.4812 23.8937C35.6267 24.0389 35.7422 24.2113 35.821 24.4011C35.8997 24.591 35.9403 24.7945 35.9403 25C35.9403 25.2055 35.8997 25.409 35.821 25.5988C35.7422 25.7887 35.6267 25.9611 35.4812 26.1062L16.7312 44.8562C16.4378 45.1496 16.0399 45.3145 15.625 45.3145C15.2101 45.3145 14.8121 45.1496 14.5187 44.8562C14.2253 44.5628 14.0605 44.1649 14.0605 43.75C14.0605 43.3351 14.2253 42.9371 14.5187 42.6437L32.1656 25L14.5187 7.35624C14.3732 7.21109 14.2578 7.03867 14.179 6.84884C14.1002 6.65901 14.0597 6.45551 14.0597 6.24999C14.0597 6.04446 14.1002 5.84096 14.179 5.65113C14.2578 5.4613 14.3732 5.28888 14.5187 5.14374Z" fill="#F77366"/>
</svg>
